<?xml version="1.0" encoding="utf-8"?>
<!-- Generator: Adobe Illustrator 23.0.1, SVG Export Plug-In . SVG Version: 6.00 Build 0)  -->
<svg version="1.1" id="Layer_1" xmlns="http://www.w3.org/2000/svg" xmlns:xlink="http://www.w3.org/1999/xlink" x="0px" y="0px"
	 viewBox="0 0 200 132" style="enable-background:new 0 0 200 132;" xml:space="preserve">
<style type="text/css">
	.st0{fill:#3B4D81;}
	.st1{fill:#A967AA;}
	.st2{fill:#54C2BA;}
	.st3{fill:#5BC9E1;}
	.st4{fill:#ECE09C;}
</style>
<g>
	<path class="st0" d="M186.08,128.34H11.53c-0.51,0-0.92-0.41-0.92-0.92v-25.49c0-0.51,0.41-0.92,0.92-0.92h174.54
		c0.51,0,0.92,0.41,0.92,0.92v25.49C187,127.92,186.59,128.34,186.08,128.34z"/>
</g>
<path class="st1" d="M170.33,101.4H28.76c-0.5,0-0.9-0.4-0.9-0.9V67.9c0-0.5,0.4-0.9,0.9-0.9h141.57c0.5,0,0.9,0.4,0.9,0.9v32.59
	C171.23,100.99,170.83,101.4,170.33,101.4z"/>
<path class="st2" d="M164.98,67.04H34.11c-0.46,0-0.84-0.37-0.84-0.84V50.84c0-0.46,0.37-0.84,0.84-0.84h130.87
	c0.46,0,0.84,0.37,0.84,0.84V66.2C165.81,66.66,165.44,67.04,164.98,67.04z"/>
<path class="st3" d="M154.86,49.95H59.49c-0.6,0-1.09-0.49-1.09-1.09V23.09c0-0.6,0.49-1.09,1.09-1.09h95.37
	c0.6,0,1.09,0.49,1.09,1.09v25.76C155.96,49.46,155.47,49.95,154.86,49.95z"/>
<path class="st4" d="M123.22,22.11H68.47c-0.53,0-0.96-0.43-0.96-0.96V4.96c0-0.53,0.43-0.96,0.96-0.96h54.74
	c0.53,0,0.96,0.43,0.96,0.96v16.2C124.18,21.68,123.75,22.11,123.22,22.11z"/>
</svg>
